<svg xmlns="http://www.w3.org/2000/svg" fill="none" stroke="#E5E5E5" stroke-linecap="round" stroke-linejoin="round" stroke-width="2" viewBox="0 0 24 24"><path d="M10.539 3.563a2 2 0 0 1 2.922 0l.789.844a2 2 0 0 0 1.528.633l1.154-.039A2 2 0 0 1 19 7.068l-.04 1.154a2 2 0 0 0 .634 1.528l.844.789a2 2 0 0 1 0 2.922l-.844.789a2 2 0 0 0-.633 1.528L19 16.932A2 2 0 0 1 16.932 19l-1.154-.04a2 2 0 0 0-1.528.634l-.789.844a2 2 0 0 1-2.922 0l-.789-.844a2 2 0 0 0-1.528-.633L7.068 19A2 2 0 0 1 5 16.932l.04-1.154a2 2 0 0 0-.634-1.528l-.844-.789a2 2 0 0 1 0-2.922l.844-.789a2 2 0 0 0 .633-1.528L5 7.068A2 2 0 0 1 7.068 5l1.154.04a2 2 0 0 0 1.528-.634l.789-.844z"></path><circle cx="12" cy="12" r="3"></circle></svg>